<svg width="403.64755859375px" height="131.605126953125px" xmlns="http://www.w3.org/2000/svg" viewBox="48.17622070312501 9.197436523437503 403.64755859375 131.605126953125" style="background: rgb(253, 253, 253);" preserveAspectRatio="xMidYMid"><defs><filter id="editing-metal-beveled"><feGaussianBlur stdDeviation="4" in="SourceAlpha" result="blur"></feGaussianBlur><feSpecularLighting surfaceScale="5" specularConstant="0.8" specularExponent="7.5" lighting-color="#bbcedd" in="blur" result="specular"><fePointLight x="-250" y="-50" z="300"></fePointLight></feSpecularLighting><feComposite operator="in" in="specular" in2="SourceAlpha" result="comp"></feComposite><feComposite in="SourceGraphic" in2="comp" operator="arithmetic" k1="0" k2="1" k3="1" k4="0"></feComposite></filter></defs><g filter="url(#editing-metal-beveled)"><g transform="translate(108.15500020980835, 99.34500122070312)"><path d="M56.88-41.34L56.88 0L48.69 0L48.69-26.69L34.28-1.34L34.28-1.34Q33.75-0.38 32.80 0.13L32.80 0.13L32.80 0.13Q31.84 0.63 30.75 0.63L30.75 0.63L30.75 0.63Q29.69 0.63 28.77 0.13L28.77 0.13L28.77 0.13Q27.84-0.38 27.31-1.34L27.31-1.34L12.84-26.69L12.84 0L4.72 0L4.72-41.34L4.72-41.34Q4.72-42.75 5.55-43.84L5.55-43.84L5.55-43.84Q6.38-44.94 7.72-45.31L7.72-45.31L7.72-45.31Q8.38-45.47 9.03-45.42L9.03-45.42L9.03-45.42Q9.69-45.38 10.30-45.14L10.30-45.14L10.30-45.14Q10.91-44.91 11.41-44.48L11.41-44.48L11.41-44.48Q11.91-44.06 12.25-43.47L12.25-43.47L30.75-11.31L49.25-43.47L49.25-43.47Q49.97-44.66 51.23-45.16L51.23-45.16L51.23-45.16Q52.50-45.66 53.88-45.31L53.88-45.31L53.88-45.31Q55.19-44.94 56.03-43.84L56.03-43.84L56.03-43.84Q56.88-42.75 56.88-41.34L56.88-41.34ZM73.66-48.06L73.66-40.72L65.53-40.72L65.53-48.06L73.66-48.06ZM73.66-33.78L73.66 0L65.53 0L65.53-33.78L73.66-33.78ZM118.88-18.75L118.88 0L110.75 0L110.75-18.75L110.75-18.75Q110.75-20.34 110.20-21.61L110.20-21.61L110.20-21.61Q109.66-22.88 108.72-23.78L108.72-23.78L108.72-23.78Q107.78-24.69 106.52-25.17L106.52-25.17L106.52-25.17Q105.25-25.66 103.78-25.66L103.78-25.66L89.56-25.66L89.56 0L81.44 0L81.44-29.75L81.44-29.75Q81.44-30.59 81.75-31.33L81.75-31.33L81.75-31.33Q82.06-32.06 82.63-32.61L82.63-32.61L82.63-32.61Q83.19-33.16 83.94-33.47L83.94-33.47L83.94-33.47Q84.69-33.78 85.53-33.78L85.53-33.78L103.84-33.78L103.84-33.78Q105.38-33.78 107.08-33.44L107.08-33.44L107.08-33.44Q108.78-33.09 110.45-32.33L110.45-32.33L110.45-32.33Q112.13-31.56 113.64-30.39L113.64-30.39L113.64-30.39Q115.16-29.22 116.33-27.55L116.33-27.55L116.33-27.55Q117.50-25.88 118.19-23.69L118.19-23.69L118.19-23.69Q118.88-21.50 118.88-18.75L118.88-18.75ZM155.72-33.78L155.72-25.66L141.53-25.66L141.53 0L133.31 0L133.31-25.66L122.75-25.66L122.75-33.78L133.31-33.78L133.31-44.81L141.53-44.81L141.53-33.78L155.72-33.78ZM194-22.59L194-11.19L194-11.19Q194-9.50 193.41-7.55L193.41-7.55L193.41-7.55Q192.81-5.59 191.48-3.92L191.48-3.92L191.48-3.92Q190.16-2.25 188.02-1.13L188.02-1.13L188.02-1.13Q185.88 0 182.81 0L182.81 0L168.16 0L168.16 0Q166.47 0 164.52-0.59L164.52-0.59L164.52-0.59Q162.56-1.19 160.89-2.52L160.89-2.52L160.89-2.52Q159.22-3.84 158.09-5.98L158.09-5.98L158.09-5.98Q156.97-8.13 156.97-11.19L156.97-11.19L156.97-11.19Q156.97-12.88 157.56-14.84L157.56-14.84L157.56-14.84Q158.16-16.81 159.48-18.48L159.48-18.48L159.48-18.48Q160.81-20.16 162.95-21.28L162.95-21.28L162.95-21.28Q165.09-22.41 168.16-22.41L168.16-22.41L182.81-22.41L182.81-14.66L168.16-14.66L168.16-14.66Q166.50-14.66 165.59-13.64L165.59-13.64L165.59-13.64Q164.69-12.63 164.69-11.13L164.69-11.13L164.69-11.13Q164.69-9.53 165.73-8.64L165.73-8.64L165.73-8.64Q166.78-7.75 168.22-7.75L168.22-7.75L182.81-7.75L182.81-7.75Q184.47-7.75 185.38-8.75L185.38-8.75L185.38-8.75Q186.28-9.75 186.28-11.25L186.28-11.25L186.28-22.59L186.28-22.59Q186.28-24.19 185.30-25.13L185.30-25.13L185.30-25.13Q184.31-26.06 182.81-26.06L182.81-26.06L164.97-26.06L164.97-33.78L182.81-33.78L182.81-33.78Q184.50-33.78 186.45-33.19L186.45-33.19L186.45-33.19Q188.41-32.59 190.08-31.27L190.08-31.27L190.08-31.27Q191.75-29.94 192.88-27.80L192.88-27.80L192.88-27.80Q194-25.66 194-22.59L194-22.59ZM221.50-18.44L240.63 0L228.91 0L212.53-15.81L212.53-15.81Q211.16-17.06 211.25-18.94L211.25-18.94L211.25-18.94Q211.31-19.81 211.70-20.58L211.70-20.58L211.70-20.58Q212.09-21.34 212.78-21.88L212.78-21.88L227.63-33.84L240.63-33.84L221.50-18.44ZM209.19-48.06L209.19 0L201.06 0L201.06-48.06L209.19-48.06ZM278.97-22.59L278.97-11.19L278.97-11.19Q278.97-9.50 278.38-7.55L278.38-7.55L278.38-7.55Q277.78-5.59 276.45-3.92L276.45-3.92L276.45-3.92Q275.13-2.25 272.98-1.13L272.98-1.13L272.98-1.13Q270.84 0 267.78 0L267.78 0L253.13 0L253.13 0Q251.44 0 249.48-0.59L249.48-0.59L249.48-0.59Q247.53-1.19 245.86-2.52L245.86-2.52L245.86-2.52Q244.19-3.84 243.06-5.98L243.06-5.98L243.06-5.98Q241.94-8.13 241.94-11.19L241.94-11.19L241.94-11.19Q241.94-12.88 242.53-14.84L242.53-14.84L242.53-14.84Q243.13-16.81 244.45-18.48L244.45-18.48L244.45-18.48Q245.78-20.16 247.92-21.28L247.92-21.28L247.92-21.28Q250.06-22.41 253.13-22.41L253.13-22.41L267.78-22.41L267.78-14.66L253.13-14.66L253.13-14.66Q251.47-14.66 250.56-13.64L250.56-13.64L250.56-13.64Q249.66-12.63 249.66-11.13L249.66-11.13L249.66-11.13Q249.66-9.53 250.70-8.64L250.70-8.64L250.70-8.64Q251.75-7.75 253.19-7.75L253.19-7.75L267.78-7.75L267.78-7.75Q269.44-7.75 270.34-8.75L270.34-8.75L270.34-8.75Q271.25-9.75 271.25-11.25L271.25-11.25L271.25-22.59L271.25-22.59Q271.25-24.19 270.27-25.13L270.27-25.13L270.27-25.13Q269.28-26.06 267.78-26.06L267.78-26.06L249.94-26.06L249.94-33.78L267.78-33.78L267.78-33.78Q269.47-33.78 271.42-33.19L271.42-33.19L271.42-33.19Q273.38-32.59 275.05-31.27L275.05-31.27L275.05-31.27Q276.72-29.94 277.84-27.80L277.84-27.80L277.84-27.80Q278.97-25.66 278.97-22.59L278.97-22.59Z" fill="#85a2b6"></path></g></g><style>text {
  font-size: 64px;
  font-family: Arial Black;
  dominant-baseline: central;
  text-anchor: middle;
}</style></svg>